<svg id="Capa_1" enable-background="new 0 0 497 497" height="512" viewBox="0 0 497 497" width="512" xmlns="http://www.w3.org/2000/svg"><g><path d="m100.392 78.742-89.27 23.92c-8.002 2.144-12.751 10.369-10.607 18.371l79.004 294.846 220.194-43.472 10.607-18.371z" fill="#d5d9f2"/><path d="m310.32 354.036-79.004-294.846c-2.144-8.002-10.369-12.751-18.371-10.607l-112.553 30.159v241.505c0 16.568 13.431 30 30 30h60.531l-10.329 38.549-101.075 27.083c2.144 8.002 10.369 12.751 18.371 10.607l201.823-54.078c8.002-2.145 12.751-10.37 10.607-18.372z" fill="#a4ace3"/><path d="m72.016 223.507c3.251 12.133 9.367 24.353 28.376 40.448l10-45.211-10-45.211c-21.49 6.092-34.176 28.327-28.376 49.974z" fill="#ca59a6"/><path d="m221.662 183.409c-5.852-21.841-28.302-34.802-50.142-28.95-23.984 6.427-29.925 29.427-29.925 29.427s-16.645-16.949-40.63-10.522c-.194.052-.381.115-.574.169v90.422c15.207 12.877 38.663 28.234 75.524 48.019 49.569-80.019 51.6-106.724 45.747-128.565z" fill="#aa3584"/><path d="m342.35 121.21-2.379-121.21h-208.942c-8.284 0-15 6.716-15 15v305.247l85.155 2.369z" fill="#f3f1f4"/><path d="m339.971 0v118.069l-52.034-13.974c-16.004-4.288-32.454 5.209-36.742 21.213l-52.234 194.939h-82.933c0 8.284 6.716 15 15 15h208.943c8.284 0 15-6.716 15-15v-305.247c0-8.284-6.715-15-15-15z" fill="#d5d9f2"/><g fill="#ca59a6"><path d="m171.425 82.593-16.382-22.304c-.905-1.233-.905-2.911 0-4.144l16.382-22.304c1.399-1.904 4.243-1.904 5.642 0l16.382 22.304c.905 1.233.905 2.911 0 4.144l-16.382 22.304c-1.399 1.905-4.244 1.905-5.642 0z"/><path d="m171.425 192-16.382-22.304c-.905-1.233-.905-2.911 0-4.144l16.382-22.304c1.399-1.904 4.243-1.904 5.642 0l16.382 22.304c.905 1.233.905 2.911 0 4.144l-16.383 22.304c-1.398 1.904-4.243 1.904-5.641 0z"/><path d="m171.425 301.406-16.382-22.304c-.905-1.233-.905-2.911 0-4.144l16.382-22.304c1.399-1.904 4.243-1.904 5.642 0l16.382 22.304c.905 1.233.905 2.911 0 4.144l-16.382 22.304c-1.399 1.904-4.244 1.904-5.642 0z"/><path d="m299.575 82.593 16.382-22.304c.905-1.233.905-2.911 0-4.144l-16.382-22.304c-1.399-1.904-4.243-1.904-5.642 0l-16.382 22.304c-.905 1.233-.905 2.911 0 4.144l16.382 22.304c1.399 1.905 4.244 1.905 5.642 0z"/></g><path d="m407.942 490.569 77.936-317.908-201.823-54.078c-8.002-2.144-16.227 2.605-18.371 10.607l-79.004 294.846z" fill="#f3f1f4"/><path d="m485.878 172.662-80.945 302.09c-1.072 4.001-5.185 6.375-9.186 5.303l-209.068-56.02c-2.144 8.002 2.605 16.227 10.607 18.371l201.823 54.078c8.002 2.144 16.227-2.604 18.371-10.607l79.004-294.846c2.145-8-2.604-16.225-10.606-18.369z" fill="#d5d9f2"/><path d="m362.787 221.045c-72.221 39.081-87.071 59.243-92.727 78.691-5.985 20.578 5.671 42.39 26.377 47.917 11.473 3.062 21.118.341 27.761-2.995-3.74 11.763-8.427 21.573-15.987 29.409-3.813 3.952-9.448 5.566-14.753 4.144l-8.851-2.372c-3.967-1.063-8.244 1.067-9.426 5-1.222 4.07 1.165 8.316 5.24 9.408l73.449 19.68c3.967 1.063 8.244-1.067 9.426-5 1.222-4.07-1.165-8.316-5.24-9.408l-9.155-2.453c-5.305-1.421-9.378-5.636-10.704-10.965-2.63-10.566-1.783-21.405.861-33.462 4.085 6.21 11.078 13.39 22.544 16.474 20.695 5.567 41.697-7.495 46.802-28.309 4.825-19.671 2.046-44.557-40.959-114.512-.976-1.585-3.02-2.133-4.658-1.247z" fill="#717ed4"/></g></svg>