<?xml version="1.0"?>
<svg xmlns="http://www.w3.org/2000/svg" xmlns:xlink="http://www.w3.org/1999/xlink" xmlns:svgjs="http://svgjs.com/svgjs" version="1.1" width="512" height="512" x="0" y="0" viewBox="0 0 510.977 510.977" style="enable-background:new 0 0 512 512" xml:space="preserve" class=""><g>
<g xmlns="http://www.w3.org/2000/svg">
	<path style="" d="M255.22,105.177c19.535-49.77,61.325-87.79,113.231-87.79c43.705,0,79.625,23.111,108.871,54.44   c38.859,41.622,56.17,137.216-15.863,209.24c-36.546,36.546-205.815,212.524-205.815,212.524S86.384,317.613,49.838,281.066   c-72.033-72.024-55.578-167.618-15.863-209.24c29.581-31.002,65.165-54.44,108.871-54.44   C194.751,17.386,235.685,55.407,255.22,105.177" fill="#cb59a6" data-original="#d71e00"/>
	<path style="" d="M429.848,94.824c26.006,21.865,39.538,63.103,31.858,97.341c-0.675,2.978-1.395,6.021-2.154,9.091   c-1.17,4.733,1.718,9.518,6.45,10.689c4.733,1.17,9.518-1.718,10.689-6.45c0.787-3.183,1.534-6.339,2.238-9.446   c9.114-40.635-6.622-88.592-37.718-114.736c-16.942-14.251-37.574-20.273-68.03-20.273c-4.875,0-8.828,3.952-8.828,8.828   s3.952,8.828,8.828,8.828C399.8,78.694,416.45,83.554,429.848,94.824z" fill="#d36db2" data-original="#b21606" class=""/>
</g>
<g xmlns="http://www.w3.org/2000/svg">
</g>
<g xmlns="http://www.w3.org/2000/svg">
</g>
<g xmlns="http://www.w3.org/2000/svg">
</g>
<g xmlns="http://www.w3.org/2000/svg">
</g>
<g xmlns="http://www.w3.org/2000/svg">
</g>
<g xmlns="http://www.w3.org/2000/svg">
</g>
<g xmlns="http://www.w3.org/2000/svg">
</g>
<g xmlns="http://www.w3.org/2000/svg">
</g>
<g xmlns="http://www.w3.org/2000/svg">
</g>
<g xmlns="http://www.w3.org/2000/svg">
</g>
<g xmlns="http://www.w3.org/2000/svg">
</g>
<g xmlns="http://www.w3.org/2000/svg">
</g>
<g xmlns="http://www.w3.org/2000/svg">
</g>
<g xmlns="http://www.w3.org/2000/svg">
</g>
<g xmlns="http://www.w3.org/2000/svg">
</g>
</g></svg>
