<?xml version="1.0"?>
<svg xmlns="http://www.w3.org/2000/svg" xmlns:xlink="http://www.w3.org/1999/xlink" xmlns:svgjs="http://svgjs.com/svgjs" version="1.1" width="512" height="512" x="0" y="0" viewBox="0 0 497 497" style="enable-background:new 0 0 512 512" xml:space="preserve" class=""><g><g xmlns="http://www.w3.org/2000/svg"><g><path d="m82.022 155.995c-6.51 13.768-15.668 26.247-26.814 36.882-13.336 12.726-21.668 30.65-21.706 50.486-.053 27.76 16.764 51.883 40.572 63.23-3.601 9.68-5.572 20.152-5.572 31.086v.001c0 49.252 39.927 89.18 89.18 89.18h90.82c0-6.535 0-264.237 0-270.865z" fill="#ce857a" data-original="#ce857a" style=""/><path d="m414.978 155.995h-166.476v157.505 113.36h90.459c49.253 0 89.18-39.928 89.18-89.18v-.001c0-10.882-1.952-21.307-5.52-30.947 23.97-11.287 40.935-35.491 40.881-63.369-.038-19.834-8.368-37.756-21.701-50.48-11.146-10.639-20.311-23.118-26.823-36.888z" fill="#d6948c" data-original="#d6948c" style="" class=""/></g><g><path d="m57.236 46.121 55.849-13.925 15.848 63.565v23.968h-35.287c.846-7.292-1.236-14.752-6.101-20.249-4.864-5.497-11.838-8.666-19.178-8.714z" fill="#cb59a6" data-original="#ea5b70" style="" class=""/><path d="m113.782 68.553c-10.177-14.797-26.532-24.162-44.445-25.448 15.402 9.255 20.386 29.243 11.131 44.645-11.568 19.253-36.554 25.482-55.807 13.914-24.066-14.46-31.853-45.692-17.392-69.758 18.075-30.083 57.115-39.817 87.198-21.741 37.603 22.594 49.77 71.394 27.176 108.997 5.208-17.187 2.315-35.811-7.861-50.609z" fill="#d982bd" data-original="#ff8e9e" style="" class=""/></g><g><path d="m177.918 398.791c-24.646-3.493-48.796 9.021-60.154 31.17s-7.426 49.064 9.794 67.039h121.073v-98.209z" fill="#d4d4ff" data-original="#d4d4ff" style="" class=""/><path d="m379.503 429.961c-11.358-22.149-35.509-34.663-60.154-31.17h-70.718v98.209h121.073c0-.004 0-.007 0-.011l.005.011c17.22-17.975 21.152-44.89 9.794-67.039z" fill="#efedff" data-original="#efedff" style=""/></g><g><path d="m248.629 386.8h-50.07v110.2h50.072v-110.2z" fill="#d982bd" data-original="#ff8e9e" style="" class=""/><path d="m329.328 496.985c0-31.871-3.131-63.666-9.347-94.926l-.653-3.284c-9.081-6.556-19.147-11.916-30-15.802-12.776-4.575-26.529-7.048-40.697-7.048v121.075h80.697z" fill="#d36fb3" data-original="#55dafe" style="" class=""/><path d="m248.629 375.925c-26.424 0-50.851 8.531-70.702 22.859-.003.002-.006.004-.01.007-6.35 31.921-10 62.775-10 98.209h10 20.641c.059-52.61 31.451-97.878 76.519-118.152-8.549-1.914-17.413-2.923-26.448-2.923z" fill="#cb59a6" data-original="#ea5b70" style="" class=""/></g><path d="m297.937 395.573-8.609-12.6h-81.405l-8.607 12.6c-9.075 13.274.43 31.287 16.51 31.287h65.601c16.08 0 25.585-18.012 16.51-31.287z" fill="#efedff" data-original="#efedff" style=""/><path d="m248.631 361.078-40.708 21.896c7.147 18.745 21.447 33.588 40.708 43.887 19.26-10.298 33.535-25.143 40.683-43.887h.001z" fill="#ffbf9d" data-original="#ffbf9d" style="" class=""/><g><path d="m393.502 208.5h-290c-19.33 0-35 15.67-35 35s15.67 35 35 35h290c19.33 0 35-15.67 35-35s-15.67-35-35-35z" fill="#ffbf9d" data-original="#ffbf9d" style="" class=""/><g><g><path d="m305.999 155.995h-162.666v159.099l102.285 71.394h27.031c68.586-11.499 120.852-71.135 120.852-142.987 0-.001 0-.001 0-.002z" fill="#ffd4bd" data-original="#ffd4bd" style="" class=""/></g><path d="m151.773 236.631h-40.703l-7.568 6.868v.001c0 71.854 52.267 131.488 120.853 142.987 7.854 1.316 15.919 2.013 24.147 2.013s16.293-.696 24.148-2.013c-71.024-11.855-124.474-74.866-120.877-149.856z" fill="#ffbf9d" data-original="#ffbf9d" style="" class=""/></g><g><path d="m248.631 287.252-44.419 39.151c3.322 26.915 25.906 49.525 37.532 59.54 3.956 3.408 9.818 3.408 13.774 0 11.626-10.015 34.21-32.625 37.533-59.54z" fill="#ce857a" data-original="#ce857a" style=""/><path d="m308.333 295.078c-8.588 0-16.641-3.684-22.704-9.765-10.444-10.475-27.669-9.595-36.998 1.939-9.342-11.55-26.567-12.402-36.998-1.939-6.063 6.082-14.116 9.765-22.704 9.765-3.865 0-6.746 3.544-5.992 7.335 6.154 30.91 45.782 40.756 65.694 16.137 19.941 24.654 59.547 14.741 65.694-16.137.754-3.791-2.127-7.335-5.992-7.335z" fill="#d6948c" data-original="#d6948c" style="" class=""/></g></g><g><path d="m373.383 155.995h-221.61v80.636c16.782-4.871 32.822-12.28 47.615-22.094 19.802-13.134 36.447-29.91 49.113-49.343 12.666 19.433 29.312 36.209 49.113 49.343 28.53 18.924 61.684 28.936 95.887 28.961 0-12.066-1.475-23.791-4.253-34.998l6.099-6.1c-4.63-16.545-12.045-32.249-21.964-46.405z" fill="#d6948c" data-original="#d6948c" style="" class=""/><path d="m123.62 155.995c-9.918 14.156-17.333 29.858-21.964 46.403l6.099 6.102c-2.778 11.208-4.253 22.932-4.253 34.999 16.467-.013 32.689-2.346 48.271-6.868 1.432-29.954 11.97-57.865 29.091-80.636z" fill="#ce857a" data-original="#ce857a" style=""/></g><path d="m273.613 444.842-12.408 4.514 4.514-12.408c1.784-4.903-1.856-10.088-7.064-10.088h-20.047c-5.219 0-8.845 5.195-7.064 10.088l4.514 12.408-12.408-4.514c-4.889-1.783-10.088 1.845-10.088 7.064v20.047c0 5.224 5.207 8.848 10.088 7.064l12.408-4.514-4.514 12.408c-1.784 4.903 1.856 10.088 7.064 10.088h20.047c5.219 0 8.845-5.195 7.064-10.088l-4.514-12.408 12.408 4.514c4.873 1.777 10.088-1.825 10.088-7.064v-20.047c-.001-5.225-5.204-8.841-10.088-7.064z" fill="#ffce71" data-original="#ffce71" style="" class=""/><path d="m273.613 444.842-12.408 4.514 4.514-12.408c1.784-4.903-1.856-10.088-7.064-10.088h-20.047c-5.219 0-8.845 5.195-7.064 10.088l4.514 12.408-12.408-4.514c-4.889-1.783-10.088 1.845-10.088 7.064v20.047c0 5.224 5.207 8.848 10.088 7.064l12.408-4.514-4.514 12.408c-1.784 4.903 1.856 10.088 7.064 10.088h20.047c5.219 0 8.845-5.195 7.064-10.088l-4.514-12.408 12.408 4.514c4.873 1.777 10.088-1.825 10.088-7.064v-20.047c-.001-5.225-5.204-8.841-10.088-7.064z" fill="#ffce71" data-original="#ffce71" style="" class=""/><g><path d="m374.999 31.265c-5.97-18.628-23.291-31.265-42.983-31.265h-49.886c-25.188 0-45.608 20.419-45.608 45.607v40.74l12.109 12.108 135.097-39.961z" fill="#dd83c0" data-original="#676fb2" style="" class=""/><path d="m282.13 0h-117.407c-19.431 0-36.751 12.637-42.722 31.265l-8.728 27.23 135.227 40 .131-.039v-59.167c0-19.547 14.198-36.199 33.499-39.289z" fill="#cb59a6" data-original="#4c5699" style="" class=""/></g><g><path d="m383.727 58.495h-157.547v97.5h188.798z" fill="#dba0c8" data-original="#9ea2e3" style="" class=""/><path d="m242.054 124.051c-14.365-18.604-20.137-42.44-15.875-65.556h-112.906l-31.251 97.5h219.439c-23.441-1.724-45.042-13.34-59.407-31.944z" fill="#cd71af" data-original="#8288cb" style="" class=""/></g><path d="m278.5 103.495h-29.446c-8.076 0-15.026-6.206-15.406-14.273-.406-8.614 6.457-15.727 14.983-15.727h29.869c8.284 0 15-6.716 15-15s-6.716-15-15-15h-29.87c-24.853 0-45 20.147-45 45s20.147 45 45 45h29.87c8.284 0 15-6.716 15-15s-6.716-15-15-15z" fill="#ffce71" data-original="#ffce71" style="" class=""/><g><path d="m490.41 100.881c-8.787-8.788-23.033-8.787-31.82-.001-21.033 21.032-48.998 32.615-78.743 32.615h-141.216l-22.975 22.5 22.975 22.5h141.217c41.765 0 81.03-16.264 110.562-45.795 8.787-8.786 8.787-23.033 0-31.819z" fill="#dd83c0" data-original="#676fb2" style="" class=""/><path d="m235.656 155.995c0-9.277 4.945-17.853 12.975-22.5h-226.131c-12.426 0-22.5 10.073-22.5 22.5s10.074 22.5 22.5 22.5h226.131c-8.031-4.646-12.975-13.222-12.975-22.5z" fill="#cb59a6" data-original="#4c5699" style="" class=""/></g><g fill="#313d40"><path d="m186.053 249.5c-4.142 0-7.5 3.357-7.5 7.5v12c0 4.143 3.358 7.5 7.5 7.5s7.5-3.357 7.5-7.5v-12c0-4.143-3.358-7.5-7.5-7.5z" fill="#313d40" data-original="#313d40" style="" class=""/><path d="m310.95 249.5c-4.142 0-7.5 3.357-7.5 7.5v12c0 4.143 3.358 7.5 7.5 7.5s7.5-3.357 7.5-7.5v-12c0-4.143-3.357-7.5-7.5-7.5z" fill="#313d40" data-original="#313d40" style="" class=""/></g></g></g></svg>
