<?xml version="1.0"?>
<svg xmlns="http://www.w3.org/2000/svg" xmlns:xlink="http://www.w3.org/1999/xlink" xmlns:svgjs="http://svgjs.com/svgjs" version="1.1" width="512" height="512" x="0" y="0" viewBox="0 0 497 497" style="enable-background:new 0 0 512 512" xml:space="preserve" class=""><g><g xmlns="http://www.w3.org/2000/svg"><g><path d="m319.208 398.783-20.708.007 30.697 98.21h40.376c0-17.131-3.589-33.436-10.035-48.219-8.654-19.849-22.617-37.203-40.33-49.998z" fill="#8895e1" data-original="#ff8e9e" style="" class=""/><path d="m177.79 398.789c-17.317 12.501-31.445 29.618-40.329 49.993-6.446 14.783-10.034 31.087-10.034 48.218h40.361l30.713-98.209z" fill="#71afd4" data-original="#2ed0fc" style="" class=""/></g><g><path d="m319.208 398.783c-9.081-6.557-19.158-11.927-30.01-15.813-4.63-1.658-9.39-3.035-14.25-4.123h-26.581l-20 65.067 20 53.086h80.83v-.014c0-36.24-3.779-66.538-9.989-98.203z" fill="#8cc0df" data-original="#7ce3ff" style="" class=""/><path d="m198.429 439.281v57.719h49.938v-118.152z" fill="#8895e1" data-original="#ff8e9e" style="" class=""/><path d="m248.499 375.925c-26.424 0-50.858 8.536-70.709 22.864-.003.002.003-.002 0 0-6.35 31.921-10.002 62.777-10.002 98.211h10 20.641c.059-52.61 31.451-97.878 76.519-118.152-8.551-1.914-17.415-2.923-26.449-2.923z" fill="#7180d4" data-original="#ea5b70" style="" class=""/></g><path d="m315.247 386.745-23.418-22.827h-86.911l-23.114 21.269c-4.082 3.756-5.215 8.976-4.014 13.602 1.264 4.869 5.115 9.078 10.855 10.139l32.871 6.075 14.585 28.264c5.144 9.969 19.4 9.969 24.544 0l14.585-28.264 32.363-4.703c6.479-.941 10.695-5.951 11.615-11.517.688-4.165-.453-8.618-3.961-12.038z" fill="#ffce71" data-original="#ffce71" style=""/><g><path d="m272.381 100.494h-46.045l-122.964 143.007 122.964 143.005h46.045c5.686-.947 11.197-2.204 16.639-3.79 60.294-17.576 104.352-73.247 104.352-139.214 0-20.222-4.142-39.477-11.623-56.963-19.115-44.681-60.033-77.815-109.368-86.045z" fill="#efedff" data-original="#efedff" style=""/><path d="m151.439 243.501c0-71.894 52.302-131.555 120.943-143.007-7.818-1.304-15.822-1.994-24.01-1.994-59.858 0-111.244 36.273-133.38 88.037-7.478 17.487-11.619 36.742-11.619 56.964 0 80.08 64.92 144.999 144.999 144.999 8.189 0 16.192-.69 24.01-1.994-68.641-11.452-120.943-71.113-120.943-143.005z" fill="#d4d4ff" data-original="#d4d4ff" style=""/></g><g><g fill="#ff8e9e"><ellipse cx="166.943" cy="277.71" rx="29.355" ry="23.377" fill="#8895e1" data-original="#ff8e9e" style="" class=""/><ellipse cx="330.057" cy="277.71" rx="29.355" ry="23.377" fill="#8895e1" data-original="#ff8e9e" style="" class=""/></g><g><path d="m269.323 256.374-6.852 4.824-7.709-6.009c-2.039-.045-4.129-.063-6.263-.063-2.133 0-4.223.017-6.263.063l-7.709 6.009-6.852-4.824c-10.671 1.847-17.746 6.328-17.746 17s7.075 20.043 17.746 25.416h6.27l8.29 4.383c2.039.261 4.129.402 6.263.402 2.133 0 4.224-.141 6.263-.402l8.29-4.383h6.27c10.671-5.372 17.746-14.744 17.746-25.416s-7.073-15.154-17.744-17z" fill="#ffffff" data-original="#ffffff" style="" class=""/><g fill="#d4d4ff"><path d="m227.677 298.789c4.337 2.184 9.266 3.706 14.56 4.383v-47.984c-5.295.117-10.223.435-14.56 1.185z" fill="#d4d4ff" data-original="#d4d4ff" style=""/><path d="m254.763 255.188v47.984c5.295-.677 10.223-2.2 14.561-4.383v-42.415c-4.338-.751-9.266-1.069-14.561-1.186z" fill="#d4d4ff" data-original="#d4d4ff" style=""/></g></g></g><g fill="#ffce71"><circle cx="48.5" cy="274.29" r="35" fill="#ffce71" data-original="#ffce71" style=""/><circle cx="448.5" cy="274.29" r="35" fill="#ffce71" data-original="#ffce71" style=""/></g><g><g><path d="m248.5 36.876c-26.155-22.793-60.286-36.668-97.656-36.874l-44.586 35.482v119.542h74.362c22.14-6.661 45.04-10.008 67.881-10.026l30-58.384z" fill="#8895e1" data-original="#ff8e9e" style="" class=""/><path d="m126.258 85.485c-6.037-30.791 3.113-62.604 24.586-85.482-83.128-.459-150.312 65.894-150.841 149.022-.252 39.631 14.867 75.729 39.746 102.684 4.193 4.543 10.897 5.746 16.413 2.953 4.401-2.229 7.247-6.637 7.552-11.561.964-15.538 5.154-30.255 11.906-43.479 8.315-16.286 25.929-19.477 39.372-13.084 20.44-14.093 42.624-24.591 65.628-31.511-28.164-13.176-48.374-39.001-54.362-69.542z" fill="#7180d4" data-original="#ea5b70" style="" class=""/></g><g><path d="m346.156.002-31.031 13.104v119.022l66.624 54.41c13.443-6.393 31.316-3.203 39.632 13.083 6.752 13.225 10.942 27.941 11.906 43.479.305 4.924 3.151 9.333 7.552 11.561 5.516 2.792 12.22 1.59 16.413-2.953 24.879-26.955 39.998-63.053 39.746-102.684-.53-83.127-67.714-149.48-150.842-149.022z" fill="#8cc0df" data-original="#7ce3ff" style="" class=""/><path d="m346.156.002c-37.37.206-71.5 14.081-97.656 36.874v108.124c46.573.036 93.136 13.881 133.249 41.538-52.259-47.214-66.796-123.396-35.593-186.536z" fill="#71afd4" data-original="#2ed0fc" style="" class=""/></g></g><g fill="#313d40"><path d="m334.035 253.346c-8.633-9.893-24.014-9.901-32.651.029-2.718 3.125-2.389 7.862.736 10.58 3.121 2.716 7.86 2.393 10.581-.736 2.664-3.061 7.38-3.049 10.033-.01 2.724 3.122 7.462 3.443 10.582.719 3.121-2.723 3.443-7.461.719-10.582z" fill="#313d40" data-original="#313d40" style="" class=""/><path d="m164.975 253.498c-2.718 3.125-2.389 7.862.736 10.58 3.121 2.716 7.86 2.393 10.581-.736 2.659-3.056 7.376-3.055 10.034-.009 2.725 3.12 7.463 3.439 10.582.718 3.121-2.725 3.442-7.462.718-10.583-8.635-9.892-24.014-9.901-32.651.03z" fill="#313d40" data-original="#313d40" style="" class=""/></g></g></g></svg>
