<?xml version="1.0"?>
<svg xmlns="http://www.w3.org/2000/svg" xmlns:xlink="http://www.w3.org/1999/xlink" xmlns:svgjs="http://svgjs.com/svgjs" version="1.1" width="512" height="512" x="0" y="0" viewBox="0 0 497 497" style="enable-background:new 0 0 512 512" xml:space="preserve" class=""><g><g xmlns="http://www.w3.org/2000/svg"><g><path d="m409.173 348.816c-11.044-11.044-11.044-28.95 0-39.994l.006-.006c11.044-11.044 11.044-28.95 0-39.994l-20.003-20.003h-140.665-140.687l-20.003 20.003c-11.044 11.044-11.044 28.95 0 39.994l.006.006c11.044 11.044 11.044 28.95 0 39.994l-.006.006c-11.044 11.044-11.044 28.95 0 39.994l.006.006c37.873 37.873 99.279 56.808 160.683 56.806 61.397-.002 122.793-18.938 160.662-56.806 0 0 .006-.006.006-.006 11.044-11.044 11.044-28.95 0-39.994z" fill="#d6948c" data-original="#d6948c" style=""/><path d="m107.824 248.819-20.003 20.003c-11.044 11.044-11.044 28.95 0 39.994l.006.006c11.044 11.044 11.044 28.95 0 39.994l-.006.006c-11.044 11.044-11.044 28.95 0 39.994l.006.006c37.873 37.873 99.279 56.808 160.683 56.806v-196.809z" fill="#bd7669" data-original="#bd7669" style=""/></g><g><path d="m289.208 382.971c-2.534-.907-5.108-1.729-7.716-2.468h-51.385l-36.67 36.67v79.827h176.147c0-52.026-33.18-97.133-80.376-114.029z" fill="#e587c7" data-original="#ff8e9e" style="" class=""/><path d="m281.492 380.502c-10.49-2.976-21.552-4.577-32.983-4.577-66.744 0-121.072 54.34-121.072 121.075h66c0-20.623 5.215-40.072 14.377-57.111-.005-.002-.011-.005-.017-.007 15.359-28.572 41.858-50.342 73.695-59.38z" fill="#cb59a6" data-original="#ea5b70" style="" class=""/></g><g><path d="m248.511 366.419c-17.399-14.268-51.918-12.471-83.792 5.931-37.085 21.411-56.523 57.173-43.416 79.875 13.107 22.703 53.797 23.75 90.882 2.338 15.613-9.014 28.08-20.341 36.326-32.397z" fill="#edbfde" data-original="#d4d4ff" style="" class=""/><path d="m332.303 372.35c-31.874-18.403-66.393-20.199-83.792-5.931v55.748c8.246 12.056 20.713 23.383 36.326 32.397 37.085 21.411 77.775 20.364 90.882-2.338 13.107-22.703-6.331-58.465-43.416-79.876z" fill="#ffddf4" data-original="#efedff" style="" class=""/></g><g><g fill="#ffbf9d"><path d="m103.372 207.547c-19.927 0-36.081 16.154-36.081 36.081s16.154 36.081 36.081 36.081 36.081-16.154 36.081-36.081c0-18.417-13.784-33.611-31.606-35.808-1.461-.18-2.965-.273-4.475-.273z" fill="#ffbf9d" data-original="#ffbf9d" style=""/><path d="m393.628 207.547c-1.508 0-2.995.093-4.454.273-17.825 2.195-31.627 17.389-31.627 35.808 0 19.927 16.154 36.081 36.081 36.081s36.081-16.154 36.081-36.081-16.154-36.081-36.081-36.081z" fill="#ffbf9d" data-original="#ffbf9d" style=""/></g><g><g><path d="m156.555 181.938-53.045 61.691 122.964 143.005h46.045c5.686-.947 11.197-2.204 16.639-3.79 36.512-10.643 67.119-35.229 85.545-67.638v-112.814l-13.921-20.454z" fill="#ffd4bd" data-original="#ffd4bd" style=""/><path d="m151.577 243.629c0-22.065 4.929-42.972 13.74-61.691h-29.09l-13.921 20.454v112.814c24.933 43.866 72.142 73.422 126.203 73.422 8.189 0 16.192-.69 24.01-1.994-68.64-11.452-120.942-71.114-120.942-143.005z" fill="#ffbf9d" data-original="#ffbf9d" style=""/></g><g><path d="m379.875 181.938h-64.469c1.591 2.26 3.799 4.119 6.496 5.291l29.829 12.962c7.702 3.347 12.851 10.708 13.483 19.082 1.677 22.225-.574 44.744-6.843 66.5-2.694 9.351.549 19.516 8.458 25.561 2.374 1.815 5.026 3.072 7.875 3.872 12.011-21.128 18.924-45.535 18.924-71.576 0-12.357-1.546-24.355-4.454-35.808-2.285-8.998-5.422-17.651-9.299-25.884z" fill="#d6948c" data-original="#d6948c" style=""/><path d="m107.847 207.821c-2.913 11.452-4.475 23.447-4.475 35.808 0 26.043 6.921 50.448 18.934 71.577 2.856-.799 5.507-2.054 7.886-3.873 7.909-6.045 11.152-16.21 8.458-25.561-6.269-21.755-8.519-44.275-6.843-66.5.632-8.374 5.781-15.735 13.483-19.082l29.829-12.962c2.698-1.172 4.906-3.03 6.497-5.291h-64.469c-3.88 8.238-7.012 16.89-9.3 25.884z" fill="#bd7669" data-original="#bd7669" style=""/></g></g><g><path d="m278.511 302.167h-60c-16.569 0-30 12.386-30 40 0 31.094 16.953 65.006 35.617 59.112 5.444 12.643 14.333 20.888 24.383 20.888s18.939-8.245 24.383-20.888c18.663 5.894 35.617-28.016 35.617-59.112 0-27.615-13.432-40-30-40z" fill="#bd7669" data-original="#bd7669" style=""/><path d="m296.38 287.193c-6.886 0-13.343-2.954-18.204-7.83-3.614-3.625-8.611-5.868-14.134-5.868-6.275 0-11.871 2.896-15.532 7.423-3.661-4.526-9.257-7.423-15.532-7.423-5.523 0-10.52 2.243-14.134 5.868-4.862 4.876-11.319 7.83-18.204 7.83-3.099 0-5.409 2.842-4.804 5.881 2.733 13.727 14.847 24.073 29.377 24.073 9.412 0 17.806-4.345 23.297-11.134 5.491 6.789 13.885 11.134 23.297 11.134 14.53 0 26.644-10.346 29.377-24.073.606-3.039-1.705-5.881-4.804-5.881z" fill="#d6948c" data-original="#d6948c" style=""/></g><g fill="#313d40"><path d="m186.051 251.5c-4.142 0-7.5 3.358-7.5 7.5v12c0 4.142 3.358 7.5 7.5 7.5s7.5-3.358 7.5-7.5v-12c0-4.142-3.358-7.5-7.5-7.5z" fill="#313d40" data-original="#313d40" style="" class=""/><path d="m310.949 251.5c-4.142 0-7.5 3.358-7.5 7.5v12c0 4.142 3.358 7.5 7.5 7.5s7.5-3.358 7.5-7.5v-12c0-4.142-3.358-7.5-7.5-7.5z" fill="#313d40" data-original="#313d40" style="" class=""/></g></g><circle cx="248.511" cy="482" fill="#ffce71" r="15" data-original="#ffce71" style="" class=""/><g fill="#676fb2"><path d="m318.947 407.208c1.533-1.86 3.695-3.039 6.088-3.321 4.114-.484 7.056-4.211 6.572-8.325s-4.212-7.055-8.325-6.572c-6.255.736-11.906 3.818-15.912 8.679-2.634 3.197-2.178 7.923 1.019 10.558 1.397 1.151 3.086 1.712 4.765 1.712 2.163-.001 4.31-.932 5.793-2.731z" fill="#cb59a6" data-original="#676fb2" style="" class=""/><path d="m307.928 417.65c-3.196-2.633-7.924-2.177-10.558 1.02-1.532 1.859-3.694 3.039-6.088 3.32-4.114.484-7.056 4.211-6.572 8.325.449 3.816 3.689 6.624 7.439 6.624.292 0 .588-.017.886-.052 6.256-.736 11.907-3.819 15.912-8.68 2.634-3.196 2.177-7.923-1.019-10.557z" fill="#cb59a6" data-original="#676fb2" style="" class=""/><path d="m358.134 422.486c-.397-4.123-4.061-7.139-8.186-6.745-2.398.233-4.761-.464-6.653-1.957-3.251-2.566-7.968-2.013-10.534 1.24-2.566 3.251-2.012 7.967 1.24 10.534 4.321 3.411 9.583 5.228 15.025 5.228.785 0 1.573-.038 2.363-.114 4.123-.398 7.143-4.063 6.745-8.186z" fill="#cb59a6" data-original="#676fb2" style="" class=""/><path d="m342.316 440.32c-4.944-3.903-11.125-5.72-17.389-5.114-4.123.398-7.143 4.063-6.745 8.186s4.063 7.141 8.186 6.745c2.396-.23 4.76.463 6.652 1.957 1.376 1.086 3.015 1.614 4.643 1.614 2.216 0 4.412-.979 5.892-2.853 2.567-3.252 2.012-7.968-1.239-10.535z" fill="#cb59a6" data-original="#676fb2" style="" class=""/></g><g fill="#4c5699"><path d="m178.928 393.65c-3.196-2.634-7.923-2.177-10.558 1.02-1.532 1.859-3.694 3.039-6.088 3.32-4.114.484-7.056 4.211-6.572 8.325.449 3.816 3.689 6.624 7.439 6.624.292 0 .588-.017.886-.052 6.256-.736 11.907-3.819 15.912-8.68 2.634-3.196 2.177-7.923-1.019-10.557z" fill="#cb59a6" data-original="#4c5699" style="" class=""/><path d="m205.073 415.542c-3.251-2.566-7.967-2.012-10.534 1.24-3.903 4.944-5.719 11.12-5.114 17.388.375 3.878 3.639 6.78 7.457 6.78.241 0 .485-.012.729-.035 4.123-.398 7.143-4.063 6.745-8.186-.231-2.398.463-4.761 1.957-6.653 2.566-3.252 2.012-7.968-1.24-10.534z" fill="#cb59a6" data-original="#4c5699" style="" class=""/><path d="m154.712 426.061c-5.695 2.691-10.069 7.413-12.317 13.297-1.478 3.87.46 8.205 4.33 9.683.881.336 1.786.496 2.675.496 3.02 0 5.866-1.837 7.008-4.825.86-2.251 2.534-4.059 4.712-5.088 3.745-1.77 5.347-6.24 3.577-9.985-1.77-3.746-6.242-5.347-9.985-3.578z" fill="#cb59a6" data-original="#4c5699" style="" class=""/></g><g><g><path d="m219.655 73.392c-65.843-37.895-138.785 37.024-99.144 101.83h128v-85.222z" fill="#cb59a6" data-original="#ea5b70" style="" class=""/><path d="m277.367 73.392-28.856 16.608v85.223h128c39.641-64.807-33.302-139.726-99.144-101.831z" fill="#e587c7" data-original="#ff8e9e" style="" class=""/></g><g><path d="m268.5 20h-5v-5c0-8.284-6.716-15-15-15s-15 6.716-15 15v5h-5c-8.284 0-15 6.716-15 15s6.716 15 15 15h5v30h30v-30h5c8.284 0 15-6.716 15-15s-6.716-15-15-15z" fill="#ffb357" data-original="#ffb357" style=""/><path d="m248.511 66c-16.568 0-30 13.432-30 30v53.195h60v-53.195c0-16.568-13.432-30-30-30z" fill="#ffce71" data-original="#ffce71" style="" class=""/></g><g><path d="m388.233 153.01c-34.843-14.79-71.996-23.833-109.723-27.055l-22.747 7.848v44.654l22.085 7.677c29.886 3 59.352 10.397 86.94 22.107 8.141 3.455 16.952 3.038 24.384-.42 6.493-3.021 11.934-8.362 14.953-15.473 6.475-15.252-.64-32.864-15.892-39.338z" fill="#ffce71" data-original="#ffce71" style="" class=""/><path d="m261.348 156.064c0-12.355 6.546-23.795 17.163-30.109-10.364-.885-20.803-1.357-31.211-1.357-48.293 0-94.098 9.56-138.512 28.412-15.251 6.474-22.367 24.086-15.893 39.337 3.019 7.111 8.459 12.452 14.953 15.473 7.432 3.458 16.243 3.875 24.385.42 36.96-15.689 74.872-23.644 115.068-23.643 10.193 0 20.395.516 30.549 1.536-9.751-6.576-16.502-18.355-16.502-30.069z" fill="#ffb357" data-original="#ffb357" style=""/></g></g></g></g></svg>
