<?xml version="1.0"?>
<svg xmlns="http://www.w3.org/2000/svg" xmlns:xlink="http://www.w3.org/1999/xlink" xmlns:svgjs="http://svgjs.com/svgjs" version="1.1" width="512" height="512" x="0" y="0" viewBox="0 0 24 24" style="enable-background:new 0 0 512 512" xml:space="preserve" class=""><g><g xmlns="http://www.w3.org/2000/svg" fill="#42a5f5"><path d="m5 0h-4c-.552 0-1 .447-1 1v4c0 .553.448 1 1 1h4c.552 0 1-.447 1-1v-4c0-.553-.448-1-1-1z" fill="#42f5ba" data-original="#42a5f5" style="" class=""/><path d="m5 9h-4c-.552 0-1 .447-1 1v4c0 .553.448 1 1 1h4c.552 0 1-.447 1-1v-4c0-.553-.448-1-1-1z" fill="#42f5ba" data-original="#42a5f5" style="" class=""/><path d="m5 18h-4c-.552 0-1 .447-1 1v4c0 .553.448 1 1 1h4c.552 0 1-.447 1-1v-4c0-.553-.448-1-1-1z" fill="#42f5ba" data-original="#42a5f5" style="" class=""/></g><path xmlns="http://www.w3.org/2000/svg" d="m3 0h-2c-.552 0-1 .447-1 1v4c0 .553.448 1 1 1h2z" fill="#39d5b0" data-original="#3990d5" style="" class=""/><path xmlns="http://www.w3.org/2000/svg" d="m3 9h-2c-.552 0-1 .447-1 1v4c0 .553.448 1 1 1h2z" fill="#39d5b0" data-original="#3990d5" style="" class=""/><path xmlns="http://www.w3.org/2000/svg" d="m3 18h-2c-.552 0-1 .447-1 1v4c0 .553.448 1 1 1h2z" fill="#39d5b0" data-original="#3990d5" style="" class=""/><path xmlns="http://www.w3.org/2000/svg" d="m23 0h-14c-.552 0-1 .447-1 1v4c0 .553.448 1 1 1h14c.552 0 1-.447 1-1v-4c0-.553-.448-1-1-1z" fill="#90f9d2" data-original="#90caf9" style="" class=""/><path xmlns="http://www.w3.org/2000/svg" d="m23 9h-14c-.552 0-1 .447-1 1v4c0 .553.448 1 1 1h14c.552 0 1-.447 1-1v-4c0-.553-.448-1-1-1z" fill="#90f9d2" data-original="#90caf9" style="" class=""/><path xmlns="http://www.w3.org/2000/svg" d="m23 18h-14c-.552 0-1 .447-1 1v4c0 .553.448 1 1 1h14c.552 0 1-.447 1-1v-4c0-.553-.448-1-1-1z" fill="#90f9d2" data-original="#90caf9" style="" class=""/><path xmlns="http://www.w3.org/2000/svg" d="m16 0h-7c-.552 0-1 .447-1 1v4c0 .553.448 1 1 1h7z" fill="#7dd9c3" data-original="#7db0d9" style="" class=""/><path xmlns="http://www.w3.org/2000/svg" d="m16 9h-7c-.552 0-1 .447-1 1v4c0 .553.448 1 1 1h7z" fill="#7dd9c3" data-original="#7db0d9" style="" class=""/><path xmlns="http://www.w3.org/2000/svg" d="m16 18h-7c-.552 0-1 .447-1 1v4c0 .553.448 1 1 1h7z" fill="#7dd9c3" data-original="#7db0d9" style="" class=""/></g></svg>
