<?xml version="1.0" encoding="iso-8859-1"?>
<!-- Generator: Adobe Illustrator 19.0.0, SVG Export Plug-In . SVG Version: 6.00 Build 0)  -->
<svg version="1.1" id="Capa_1" xmlns="http://www.w3.org/2000/svg" xmlns:xlink="http://www.w3.org/1999/xlink" x="0px" y="0px"
	 viewBox="0 0 455.431 455.431" style="enable-background:new 0 0 455.431 455.431;" xml:space="preserve">
<path style="fill:#5CA4DA;" d="M405.493,412.764c-69.689,56.889-287.289,56.889-355.556,0c-69.689-56.889-62.578-300.089,0-364.089
	s292.978-64,355.556,0S475.182,355.876,405.493,412.764z"/>
<path style="fill:#6DAFE0;" d="M229.138,313.209c-62.578,49.778-132.267,75.378-197.689,76.8
	c-48.356-82.489-38.4-283.022,18.489-341.333c51.2-52.622,211.911-62.578,304.356-29.867
	C377.049,112.676,330.116,232.142,229.138,313.209z"/>
<g>
	<path style="fill:#FFFFFF;" d="M131.004,81.387h49.778V205.12H153.76V104.142h-24.178V81.387H131.004z"/>
	<path style="fill:#FFFFFF;" d="M307.36,132.587c2.844-4.267,4.267-8.533,4.267-12.8c0-4.267-1.422-7.111-4.267-9.956
		s-5.689-4.267-9.956-4.267c-7.111,0-15.644,5.689-22.756,17.067l-22.756-12.8c5.689-8.533,12.8-15.644,18.489-19.911
		c7.111-4.267,15.644-7.111,27.022-7.111c11.378,0,19.911,2.844,28.444,9.956c8.533,7.111,12.8,15.644,12.8,28.444
		c0,5.689-1.422,12.8-4.267,18.489c-2.844,5.689-9.956,12.8-18.489,22.756l-22.756,22.756h48.356v24.178h-88.178v-19.911
		l36.978-36.978C298.827,142.542,304.516,136.853,307.36,132.587z"/>
	<path style="fill:#FFFFFF;" d="M119.627,273.387v-24.178h75.378v18.489l-25.6,28.444c9.956,1.422,17.067,5.689,22.756,12.8
		s8.533,14.222,8.533,22.756c0,12.8-4.267,22.756-12.8,31.289c-8.533,7.111-19.911,11.378-34.133,11.378
		s-27.022-4.267-41.244-14.222l11.378-21.333c11.378,8.533,22.756,12.8,31.289,12.8c5.689,0,9.956-1.422,14.222-4.267
		c4.267-2.844,5.689-7.111,5.689-11.378c0-5.689-1.422-8.533-5.689-12.8c-4.267-2.844-9.956-4.267-17.067-4.267
		c-4.267,0-9.956,1.422-17.067,2.844v-19.911l24.178-28.444L119.627,273.387L119.627,273.387z"/>
	<path style="fill:#FFFFFF;" d="M301.671,321.742v-22.756h27.022v21.333h14.222v24.178h-14.222v29.867h-27.022v-29.867h-49.778
		v-21.333l44.089-73.956h31.289l-42.667,71.111h17.067V321.742z"/>
</g>
<g>
</g>
<g>
</g>
<g>
</g>
<g>
</g>
<g>
</g>
<g>
</g>
<g>
</g>
<g>
</g>
<g>
</g>
<g>
</g>
<g>
</g>
<g>
</g>
<g>
</g>
<g>
</g>
<g>
</g>
</svg>
