<?xml version="1.0"?>
<svg xmlns="http://www.w3.org/2000/svg" xmlns:xlink="http://www.w3.org/1999/xlink" xmlns:svgjs="http://svgjs.com/svgjs" version="1.1" width="512" height="512" x="0" y="0" viewBox="0 0 504.5 504.5" style="enable-background:new 0 0 512 512" xml:space="preserve" class=""><g><g xmlns="http://www.w3.org/2000/svg"><g><path d="m111.503 249.5-30.123 56.105c-36.125 67.286 12.615 148.776 88.986 148.776h81.884v-204.881z" fill="#cb59a6" data-original="#ff6f4d" style="" class=""/><path d="m423.12 305.605-30.123-56.105h-140.747v204.881h81.884c76.37 0 125.111-81.491 88.986-148.776z" fill="#d977b9" data-original="#ff8f71" style="" class=""/></g><g><g><path d="m267.634 416.048h-17.753l-34.342 22.441v15.893 20l90.876 2.171v-39.713c-10.487-10.356-23.859-17.748-38.781-20.792z" fill="#ffd4bd" data-original="#ffd4bd" style=""/><path d="m252.249 414.5c-20.594 0-39.893 8.217-54.179 22.337v17.544h17.469c10.886-19.438 29.758-33.769 52.095-38.333-4.974-1.015-10.119-1.548-15.385-1.548z" fill="#ffbf9d" data-original="#ffbf9d" style=""/></g><g><path d="m332.293 448.677c-4.709-9.426-15.393-14.499-25.878-11.838-12.133 18.029-32.441 28.84-54.173 28.84-12.718 0-25.68-3.809-36.703-11.299h-17.469v42.645l7.474 7.474h46.705 77.5v-11.82c0-6.038-.682-11.917-1.973-17.565 7.113-6.883 8.941-17.583 4.517-26.437z" fill="#ffce71" data-original="#ffce71" style=""/><path d="m198.07 436.837c-10.531-2.669-21.184 2.474-25.864 11.84-4.424 8.854-2.596 19.554 4.517 26.437-1.292 5.649-1.973 11.526-1.973 17.565v11.82h30.795v-11.82c0-13.208 3.376-26.062 9.385-37.205h.001v-.003c.198-.367.404-.727.608-1.091-6.793-4.616-12.751-10.532-17.469-17.543z" fill="#ffb357" data-original="#ffb357" style=""/></g></g><g><g><path d="m397.25 249.5h-290c-19.33 0-35 15.67-35 35s15.67 35 35 35h290c19.33 0 35-15.67 35-35s-15.67-35-35-35z" fill="#ffbf9d" data-original="#ffbf9d" style=""/><path d="m252.25 141.513-145 142.987 122.853 142.987h46.295c68.585-11.499 120.852-71.134 120.852-142.987z" fill="#ffd4bd" data-original="#ffd4bd" style=""/><path d="m155.518 277.63h-41.302l-6.967 6.87c0 80.3 65.164 145 145 145 8.228 0 16.293-.696 24.148-2.013-71.141-11.876-124.469-74.991-120.879-149.857z" fill="#ffbf9d" data-original="#ffbf9d" style=""/></g><g fill="#ff8e9e"><ellipse cx="172.25" cy="331.5" rx="29" ry="23" fill="#ff8e9e" data-original="#ff8e9e" style="" class=""/><ellipse cx="332.25" cy="331.5" rx="29" ry="23" fill="#ff8e9e" data-original="#ff8e9e" style="" class=""/></g><g fill="#313d40"><path d="m273.642 302.986c-3.122-2.722-7.86-2.397-10.582.726-2.73 3.132-6.67 4.928-10.811 4.928s-8.081-1.796-10.811-4.928c-2.721-3.123-7.46-3.448-10.582-.726-3.123 2.722-3.448 7.459-.726 10.582 5.579 6.401 13.641 10.073 22.118 10.073s16.539-3.671 22.118-10.073c2.724-3.123 2.399-7.86-.724-10.582z" fill="#313d40" data-original="#313d40" style="" class=""/><path d="m207.685 295.485c-3.124-2.722-7.861-2.397-10.582.726-3.869 4.439-10.738 4.436-14.604 0-2.721-3.123-7.459-3.448-10.582-.727s-3.448 7.458-.727 10.582c9.846 11.299 27.382 11.289 37.22 0 2.723-3.122 2.398-7.859-.725-10.581z" fill="#313d40" data-original="#313d40" style="" class=""/><path d="m333.309 306.067c2.722-3.123 2.396-7.86-.727-10.582s-7.86-2.396-10.582.726c-3.877 4.448-10.746 4.426-14.604 0-2.722-3.123-7.459-3.448-10.582-.726-3.123 2.721-3.448 7.459-.726 10.582 9.848 11.299 27.382 11.288 37.221 0z" fill="#313d40" data-original="#313d40" style="" class=""/></g></g><g><path d="m224.832 124.85c-52.548 9.001-97.428 43.444-119.716 91.876-1.766 3.837-2.621 7.912-2.621 11.956 0 7.716 3.127 15.299 9.008 20.819-2.777 11.205-4.253 22.925-4.253 34.999 61.318-.045 114.913-32.145 145-78.304v-53.927z" fill="#cb59a6" data-original="#ff6f4d" style="" class=""/><path d="m399.384 216.726c-7.782-16.91-18.322-32.08-30.946-45.074-29.812-30.684-71.329-49.152-116.188-49.152-9.315 0-18.474.818-27.418 2.35 2.23 29.854 11.941 57.649 27.418 81.345 30.097 46.175 83.698 78.259 145 78.303 0-12.074-1.476-23.793-4.253-34.998 5.883-5.52 9.008-13.104 9.008-20.822 0-4.204-.856-8.116-2.621-11.952z" fill="#d977b9" data-original="#ff8f71" style="" class=""/></g><g><g><path d="m239.047 48.799c-2.151-2.507-6.098-2.287-7.945.451l-2.149 3.185c-7.419 10.997-17.86 11.559-26.083 13.016-6.391-10.375-17.844-17.313-30.898-17.313-24.935 0-45.221 20.286-45.221 45.221 0 31.1 25.302 56.401 56.401 56.401h69.099v-92.76c-5.605 0-8.895-3.179-13.204-8.201z" fill="#ffce71" data-original="#ffce71" style=""/><path d="m301.631 65.451c-8.31-1.472-18.66-2.013-26.083-13.016l-2.147-3.183c-1.848-2.739-5.797-2.957-7.948-.448-4.271 4.981-7.592 8.196-13.203 8.196-12.799 12.544-20.012 28.458-20.012 46.38 0 16.756 8.731 34.104 20.012 46.38h69.099c31.1 0 56.401-25.302 56.401-56.401 0-42.759-55.346-61.631-76.119-27.908z" fill="#fce3a0" data-original="#fce3a0" style="" class=""/></g><circle cx="252.25" cy="103.38" fill="#cb59a6" r="20" data-original="#55dafe" style="" class=""/><path d="m332.529 41.137c-13.643 0-25.824 6.353-33.762 16.248-12.685 0-20.816-9.548-20.816-19.999 0-8.094 6.667-14.66 14.798-14.496 3.607.073 6.884 2.135 8.599 5.31 4.85 8.981 17.817 1.425 13.416-6.724l-.001-.003c-4.323-8.005-12.518-13.366-21.613-13.578-7.539-.175-14.458 2.5-19.77 7.014-4.397-9.026-12.135-14.909-21.13-14.909s-16.733 5.883-21.129 14.909c-5.312-4.513-12.231-7.189-19.77-7.014-9.095.212-17.29 5.573-21.613 13.578l-.001.003c-4.381 8.112 8.552 15.732 13.416 6.724 1.715-3.175 4.991-5.237 8.599-5.31 8.131-.164 14.798 6.402 14.798 14.496 0 10.34-8.007 19.999-20.816 19.999-7.938-9.895-20.119-16.248-33.762-16.248-28.795 0-52.221 23.426-52.221 52.221 0 34.959 28.442 63.401 63.401 63.401h138.197c34.959 0 63.401-28.442 63.401-63.401 0-28.795-23.426-52.221-52.221-52.221zm-80.279-26.137c4.721 0 10 7.484 10 17.5s-5.279 17.5-10 17.5-10-7.484-10-17.5 5.279-17.5 10-17.5zm69.099 126.76h-138.198c-26.688 0-48.401-21.713-48.401-48.401 0-20.524 16.697-37.221 37.221-37.221 15.592 0 28.277 12.685 28.277 28.277 0 .326-.007.65-.021.972-.288 6.383-4.079 11.598-10.142 13.951-4.894 1.898-12.116 1.934-17.713-3.663-2.929-2.93-7.678-2.929-10.606 0-2.929 2.929-2.929 7.678 0 10.606 8.948 8.948 21.879 11.647 33.747 7.041 11.596-4.5 19.145-14.945 19.7-27.26.025-.545.037-1.095.037-1.647 0-4.417-.669-8.679-1.904-12.696 9.224-1.823 17.158-7.276 22.24-14.809 4.391 5.052 10.203 8.09 16.664 8.09s12.273-3.038 16.666-8.091c5.082 7.533 13.016 12.987 22.24 14.809-1.235 4.017-1.904 8.279-1.904 12.696 0 .552.012 1.102.037 1.648.555 12.313 8.104 22.758 19.7 27.259 11.865 4.604 24.798 1.908 33.747-7.041 2.929-2.929 2.929-7.677 0-10.606-2.928-2.929-7.677-2.929-10.606 0-5.597 5.596-12.818 5.562-17.713 3.663-6.063-2.353-9.854-7.568-10.142-13.95-.014-.323-.021-.647-.021-.973 0-15.592 12.685-28.277 28.277-28.277 20.524 0 37.221 16.697 37.221 37.221-.002 26.689-21.715 48.402-48.403 48.402z" fill="#ffb357" data-original="#ffb357" style=""/></g></g></g></svg>
